<svg xmlns="http://www.w3.org/2000/svg" viewBox="0 0 109.5 124.5"><path d="M74.7 14.8c-.1-.5-.5-.8-.9-.8-.4 0-7.7-.6-7.7-.6S60.3 7.2 59.7 6.6c-.6-.6-1.7-.4-2.2-.3 0 0-1.1.4-3 1-1.8-5.2-5-10-10.6-10-.2 0-.3 0-.5.1-1.6-2.1-3.5-3-5.2-3C25.3-5.6 19 9.7 17 17.4l-9.1 2.8c-2.8.9-2.9 1-3.3 3.7C4.3 25.9 0 56.7 0 56.7l32 6L73.2 53s.2-25-.5-37.6c1.8-.1 1.9-.2 2-.6zM52.5 8.1c-1.4.4-3 .9-4.7 1.4 0-2.4-.3-5.7-1.4-8.6 3.6.7 5.3 4.7 6.1 7.2zM44 10.6l-9.7 3c1-3.5 2.7-7 5-9.3.8-.9 2-1.8 3.4-2.4 1.3 2.7 1.5 6.3 1.3 8.7zm-7-15.6c1.1 0 2.2.4 3.2 1.1-1.8.8-3.6 2.1-5.2 3.7-3 3.2-5.3 8.2-6.2 13l-7.9 2.5c2.2-7.4 7.6-20.1 16.1-20.3z" fill="#95bf47" transform="translate(0 5.6)"/><path d="M73.8 14c-.4 0-7.7-.6-7.7-.6s-5.8-5.7-6.4-6.3a1 1 0 0 0-.6-.3v117.7l41.2-10.3s-7.1-48.4-7.2-48.7c0-.3-.2-.5-.5-.6L74.7 14.8c-.1-.4-.5-.7-.9-.8z" fill="#5e8e3e" transform="translate(0 5.6)"/><path d="M44.9 36.7l-4.8 14.2s-4.2-2.2-9.4-2.2c-7.6 0-8 4.8-8 6 0 6.6 17.2 9.1 17.2 24.5 0 12.1-7.7 19.9-18 19.9-12.4 0-18.7-7.7-18.7-7.7l3.3-11s6.5 5.6 12 5.6a4.84 4.84 0 0 0 5.1-4.9c0-8.6-14.1-9-14.1-23.1 0-11.8 8.5-23.3 25.7-23.3 6.5-.1 9.7 1.9 9.7 1.9z" fill="#fff" transform="translate(0 5.6)"/></svg>
